# Blender v2.74 (sub 0) OBJ File: ''
# www.blender.org
mtllib andy.mtl
o Andy
v -0.211876 0.712058 -0.717825
v 0.204775 0.712058 -0.721375
v 0.204775 0.628725 -0.721375
v -0.211876 0.628725 -0.717825
v -0.382511 0.628725 0.116993
v -0.000430 0.628725 0.499468
v -0.382511 0.705220 0.116993
v -0.382511 0.705220 0.116993
v -0.000430 0.712058 0.499468
v -0.382511 0.712058 0.116993
v 0.389021 0.712058 0.110419
v 0.389021 0.634248 0.110419
v 0.389021 0.628725 0.110419
v -0.382511 0.628725 0.116993
v -0.382511 0.712058 0.116993
v -0.205054 0.712058 0.082802
v -0.205054 0.631993 0.082802
v -0.205054 0.631993 0.082802
v -0.205054 0.628725 0.082802
v -0.416667 0.712058 0.082802
v -0.205054 0.712058 0.082802
v -0.205054 0.690897 0.082802
v -0.205054 0.690897 0.082802
v -0.205054 0.628725 0.082802
v -0.416667 0.628725 0.082802
v -0.205054 0.628725 0.082802
v -0.204775 0.628725 0.115478
v -0.205054 0.712058 0.082802
v -0.204775 0.712058 0.115478
v 0.211628 0.628725 0.082802
v 0.211628 0.709146 0.082802
v 0.211628 0.709146 0.082802
v 0.211628 0.712058 0.082802
v 0.211628 0.712058 0.082802
v 0.416667 0.712058 0.082802
v 0.416667 0.628725 0.082802
v 0.211628 0.649229 0.082802
v 0.211628 0.649229 0.082802
v 0.211628 0.628725 0.082802
v 0.211628 0.628725 0.082802
v 0.211876 0.628725 0.111928
v 0.211628 0.712058 0.082802
v 0.211876 0.712058 0.111928
v -0.188784 0.712058 0.082802
v -0.204775 0.712058 0.115478
v 0.211876 0.712058 0.111928
v 0.197001 0.628725 0.082802
v 0.197001 0.628725 0.082802
v 0.211876 0.628725 0.111928
v -0.204775 0.628725 0.115478
vt 0.000000 1.000000
vt 0.000000 0.000000
vt 1.000000 0.000000
vt 1.000000 1.000000
vt 0.082059 0.000000
vt 0.082059 0.917941
vt 0.082059 1.000000
vt 0.066281 0.000000
vt 0.066281 0.933719
vt 0.066281 1.000000
vt 0.933719 0.066281
vt 0.917941 1.000000
vt 0.039213 0.000000
vt 0.039213 0.960787
vt 0.039213 1.000000
vt 0.000000 0.746065
vt 0.253935 0.746065
vt 1.000000 0.746065
vt 0.078424 0.706478
vt 0.921576 0.784902
vt 0.034953 0.000000
vt 0.034953 0.965047
vt 0.034953 1.000000
vt 0.000000 0.246047
vt 0.753953 0.246047
vt 1.000000 0.246047
vt 0.069903 0.210761
vt 0.930097 0.280664
vt 0.039047 0.960953
vt 0.965047 0.000000
vt 0.964898 0.035102
vt 0.960787 1.000000
vn -0.048517 0.048108 -0.047700
vn 0.047700 0.048108 -0.048517
vn 0.047700 -0.048108 -0.048517
vn -0.048517 -0.048108 -0.047700
vn -0.058950 0.000000 0.058892
vn -0.000033 -0.048108 0.068042
vn -0.000033 0.048108 0.068042
vn 0.041642 0.058925 0.041683
vn 0.058892 0.000000 0.058950
vn 0.041642 -0.058925 0.041683
vn 0.000000 -0.083333 0.000000
vn 0.000000 0.083333 0.000000
vn -0.037267 0.074533 0.000317
vn -0.083325 0.000000 0.000708
vn -0.037267 -0.074533 0.000317
vn -0.064442 0.045575 -0.026717
vn 0.000000 0.000000 -0.083333
vn -0.064442 -0.045575 -0.026717
vn 0.037267 -0.074533 -0.000317
vn 0.083325 0.000000 -0.000708
vn 0.037267 0.074533 -0.000317
vn 0.064458 0.045575 -0.026683
vn 0.064458 -0.045575 -0.026683
usemtl Standard
s 1
f 1/1/1 2/2/2 3/3/3
f 1/1/1 3/3/3 4/4/4
f 5/5/5 6/3/6 7/6/5
f 8/6/5 6/3/6 9/4/7
f 8/6/5 9/4/7 10/7/5
f 11/8/8 9/3/7 12/9/9
f 12/9/9 9/3/7 6/4/6
f 12/9/9 6/4/6 13/10/10
f 13/8/10 6/3/6 14/6/11
f 9/1/7 11/11/8 15/12/12
f 16/13/13 1/3/1 17/14/14
f 18/14/14 1/3/1 4/4/4
f 18/14/14 4/4/4 19/15/15
f 20/1/16 21/16/17 22/17/17
f 20/1/16 23/17/17 24/18/17
f 20/1/16 24/18/17 25/4/18
f 20/1/16 25/2/18 5/5/5
f 20/1/16 5/5/5 7/6/5
f 20/1/16 8/6/5 10/7/5
f 25/1/18 26/16/11 27/19/11
f 25/1/18 27/19/11 14/6/11
f 28/18/12 20/4/16 15/12/12
f 28/18/12 15/12/12 29/20/12
f 30/21/19 3/3/3 31/22/20
f 32/22/20 3/3/3 2/4/2
f 32/22/20 2/4/2 33/23/21
f 34/24/17 35/2/22 36/3/23
f 34/24/17 36/3/23 37/25/17
f 38/25/17 36/3/23 39/26/17
f 36/1/23 35/2/22 11/8/8
f 36/1/23 11/8/8 12/9/9
f 36/1/23 12/9/9 13/10/10
f 40/24/11 36/2/23 13/8/10
f 40/24/11 13/8/10 41/27/11
f 11/11/8 35/3/22 42/26/12
f 11/11/8 42/26/12 43/28/12
f 33/21/21 2/3/2 44/29/12
f 44/29/12 2/3/2 1/4/1
f 44/29/12 1/4/1 16/15/13
f 45/1/12 46/2/12 33/21/21
f 45/1/12 33/21/21 44/29/12
f 45/1/12 44/29/12 16/15/13
f 4/1/4 3/2/3 30/30/19
f 4/1/4 30/30/19 47/31/11
f 4/1/4 48/31/11 19/32/15
f 30/30/19 49/3/11 47/31/11
f 48/31/11 49/3/11 50/4/11
f 48/31/11 50/4/11 19/32/15
